<svg width="18" height="18" viewBox="0 0 18 18" fill="none" xmlns="http://www.w3.org/2000/svg">
<path d="M9.00019 6.903C7.83919 6.903 6.90319 7.848 6.90319 9C6.90319 10.152 7.8482 11.097 9.00019 11.097C10.1522 11.097 11.0972 10.152 11.0972 9C11.0972 7.848 10.1522 6.903 9.00019 6.903ZM15.3002 9C15.3002 8.127 15.3002 7.272 15.2552 6.399C15.2102 5.391 14.9762 4.491 14.2382 3.762C13.5002 3.024 12.6092 2.79 11.6012 2.745C10.7282 2.7 9.87319 2.7 9.00019 2.7C8.12719 2.7 7.27219 2.7 6.3992 2.745C5.3912 2.79 4.4912 3.024 3.7622 3.762C3.0242 4.5 2.7902 5.391 2.7452 6.399C2.7002 7.272 2.7002 8.127 2.7002 9C2.7002 9.873 2.7002 10.728 2.7452 11.601C2.7902 12.609 3.0242 13.509 3.7622 14.238C4.5002 14.976 5.3912 15.21 6.3992 15.255C7.27219 15.3 8.12719 15.3 9.00019 15.3C9.87319 15.3 10.7282 15.3 11.6012 15.255C12.6092 15.21 13.5092 14.976 14.2382 14.238C14.9762 13.5 15.2102 12.609 15.2552 11.601C15.3092 10.737 15.3002 9.873 15.3002 9ZM9.00019 12.231C7.20919 12.231 5.76919 10.791 5.76919 9C5.76919 7.209 7.20919 5.769 9.00019 5.769C10.7912 5.769 12.2312 7.209 12.2312 9C12.2312 10.791 10.7912 12.231 9.00019 12.231ZM12.3662 6.39C11.9522 6.39 11.6102 6.057 11.6102 5.634C11.6102 5.211 11.9432 4.878 12.3662 4.878C12.7892 4.878 13.1222 5.211 13.1222 5.634C13.1245 5.73258 13.1065 5.83058 13.0693 5.92192C13.0322 6.01326 12.9766 6.096 12.9062 6.165C12.8372 6.23544 12.7545 6.29097 12.6631 6.32812C12.5718 6.36528 12.4738 6.38327 12.3752 6.381L12.3662 6.39Z" fill="#43312B"/>
</svg>
