<svg width="18" height="15" viewBox="0 0 18 15" fill="none" xmlns="http://www.w3.org/2000/svg">
<path d="M18 0.136367L17.5849 2.87788C16.5283 2.81182 15.7358 2.98798 15.2075 3.40637C14.6792 3.82475 14.3396 4.39728 14.1887 5.12394C14.0377 5.85061 14.0126 6.65435 14.1132 7.53516H18V15H10.6038V6.54424C10.6038 4.23213 11.2579 2.49253 12.566 1.32546C13.8491 0.158388 15.6604 -0.237975 18 0.136367ZM7.39623 0.136367L6.98113 2.87788C5.92453 2.81182 5.13207 2.98798 4.60377 3.40637C4.07547 3.82475 3.73585 4.39728 3.5849 5.12394C3.43396 5.85061 3.4088 6.65435 3.50943 7.53516H7.39623V15H0V6.54424C0 4.23213 0.654087 2.49253 1.96226 1.32546C3.24528 0.158388 5.0566 -0.237975 7.39623 0.136367Z" fill="#43312B"/>
</svg>
