<svg width="18" height="18" viewBox="0 0 18 18" fill="none" xmlns="http://www.w3.org/2000/svg">
<path d="M14.4909 4.1715C14.3769 4.11272 14.266 4.04814 14.1586 3.978C13.8462 3.77171 13.5599 3.52845 13.3059 3.2535C12.6691 2.52525 12.4314 1.7865 12.3444 1.26975H12.3474C12.2746 0.84 12.3046 0.5625 12.3099 0.5625H9.41112V11.7698C9.41212 11.9198 9.41012 12.0685 9.40512 12.216L9.40212 12.2708C9.40212 12.2788 9.40137 12.287 9.39987 12.2955V12.3023C9.36943 12.7043 9.24064 13.0926 9.02485 13.4332C8.80906 13.7737 8.51288 14.056 8.16237 14.2553C7.79703 14.4641 7.3832 14.5733 6.96237 14.5718C5.61237 14.5718 4.51737 13.4708 4.51737 12.111C4.51737 10.7513 5.61237 9.6495 6.96237 9.6495C7.21812 9.6495 7.47237 9.69 7.71537 9.7695L7.71912 6.8175C6.98113 6.72238 6.23144 6.78124 5.51733 6.99036C4.80323 7.19947 4.14022 7.55432 3.57012 8.0325C3.0707 8.46659 2.65067 8.98432 2.32887 9.5625C2.20662 9.77325 1.74462 10.6215 1.68912 11.997C1.65387 12.777 1.88862 13.587 2.00037 13.9208V13.9283C2.07012 14.1248 2.34312 14.7968 2.78712 15.363C3.14552 15.8172 3.56851 16.2164 4.04262 16.548V16.5405L4.04937 16.548C5.45187 17.5005 7.00812 17.4383 7.00812 17.4383C7.27737 17.427 8.17962 17.4383 9.20412 16.953C10.3404 16.4145 10.9869 15.6128 10.9869 15.6128C11.4006 15.1339 11.7293 14.5877 11.9589 13.998C12.2214 13.308 12.3084 12.4815 12.3084 12.1515V6.20475C12.3436 6.22575 12.8124 6.5355 12.8124 6.5355C12.8124 6.5355 13.4874 6.96825 14.5396 7.2495C15.2941 7.44975 16.3119 7.4925 16.3119 7.4925V4.61475C15.9556 4.65375 15.2319 4.54125 14.4901 4.17225" fill="#43312B"/>
</svg>
